<svg width="1024" height="1024" viewBox="0 0 1024 1024" fill="none" xmlns="http://www.w3.org/2000/svg">
<g clip-path="url(#clip0_1_179)">
<rect width="1024" height="1024" rx="228" fill="url(#paint0_linear_1_179)"/>
<path opacity="0.5" d="M782.927 483.43C782.927 651.747 647.657 788.193 480.797 788.193C313.935 788.193 178.667 651.747 178.667 483.43C178.667 315.114 313.935 178.667 480.797 178.667C647.657 178.667 782.927 315.114 782.927 483.43Z" fill="white"/>
<path fill-rule="evenodd" clip-rule="evenodd" d="M705.987 768.67C703.01 732.197 733.197 701.747 769.353 704.75C775.623 705.27 783.13 707.553 790.773 709.877C791.51 710.1 792.247 710.323 792.983 710.547C793.65 710.747 794.317 710.95 794.983 711.15C802.01 713.26 808.997 715.36 814.31 718.23C844.82 734.71 854.667 774.087 835.56 803.193C832.23 808.263 827.067 813.453 821.877 818.677C821.383 819.17 820.893 819.667 820.4 820.163C819.91 820.66 819.417 821.157 818.927 821.653C813.75 826.89 808.603 832.097 803.577 835.453C774.723 854.73 735.687 844.793 719.35 814.02C716.503 808.66 714.423 801.61 712.33 794.527C712.13 793.853 711.93 793.18 711.73 792.507C711.51 791.763 711.287 791.02 711.067 790.277C708.763 782.567 706.5 774.993 705.987 768.67Z" fill="white"/>
</g>
<defs>
<linearGradient id="paint0_linear_1_179" x1="512" y1="0" x2="512" y2="1024" gradientUnits="userSpaceOnUse">
<stop stop-color="#272A3F"/>
<stop offset="1" stop-color="#131520"/>
</linearGradient>
<clipPath id="clip0_1_179">
<rect width="1024" height="1024" fill="white"/>
</clipPath>
</defs>
</svg>
